<?xml version="1.0" encoding="utf-8"?>
<!-- Generator: Adobe Illustrator 16.0.0, SVG Export Plug-In . SVG Version: 6.00 Build 0)  -->
<!DOCTYPE svg PUBLIC "-//W3C//DTD SVG 1.1//EN" "http://www.w3.org/Graphics/SVG/1.1/DTD/svg11.dtd">
<svg version="1.1" id="레이어_1" xmlns="http://www.w3.org/2000/svg" xmlns:xlink="http://www.w3.org/1999/xlink" x="0px"
	 y="0px" width="465.863px" height="430.997px" viewBox="0 0 465.863 430.997" enable-background="new 0 0 465.863 430.997"
	 xml:space="preserve">
<g>
	<path fill="#FFFFFF" d="M685.908,186.333l18.288,55.496L685.908,186.333z"/>
	<g>
		<path fill="#0071BC" d="M681.569,187.529c6.096,18.499,12.192,36.997,18.288,55.496c1.808,5.485,10.5,3.136,8.679-2.393
			c-6.096-18.499-12.192-36.997-18.288-55.496C688.44,179.651,679.747,182,681.569,187.529
			c6.096,18.499,12.192,36.997,18.288,55.496c1.808,5.485,10.5,3.136,8.679-2.393c-6.096-18.499-12.192-36.997-18.288-55.496
			C688.44,179.651,679.747,182,681.569,187.529z"/>
	</g>
</g>
<g>
	<line fill="#FFFFFF" x1="739.277" y1="236.109" x2="686.173" y2="186.333"/>
	<g>
		<path fill="#0071BC" d="M742.459,232.927c-17.702-16.592-35.403-33.185-53.104-49.777c-4.229-3.964-10.606,2.388-6.364,6.364
			c17.702,16.592,35.403,33.185,53.104,49.777C740.324,243.255,746.701,236.904,742.459,232.927L742.459,232.927z"/>
	</g>
</g>
<g>
	<line fill="#FFFFFF" x1="707.306" y1="236.109" x2="759.856" y2="186.852"/>
	<g>
		<path fill="#0071BC" d="M710.488,239.292c17.517-16.419,35.033-32.839,52.55-49.258c4.242-3.977-2.135-10.328-6.364-6.364
			c-17.517,16.419-35.033,32.839-52.55,49.258C699.882,236.904,706.259,243.255,710.488,239.292L710.488,239.292z"/>
	</g>
</g>
<g>
	<g>
		<path fill="#2E3192" d="M759.748,191.586c3.048,1.123,7.125,3.296,10.101,5.658c6.24,4.952,6.098,10.763-0.924,15.242
			c-4.876,3.11-0.367,10.903,4.542,7.771c9.3-5.933,13.868-16.77,6.184-25.948c-4.471-5.339-11.033-9.016-17.51-11.402
			C756.683,180.896,754.35,189.598,759.748,191.586L759.748,191.586z"/>
	</g>
</g>
<g>
	<ellipse fill="#B8E2F4" cx="723.363" cy="240.828" rx="19.167" ry="7.833"/>
	<g>
		<path fill="#2E3192" d="M738.03,240.828c0.097-0.883-0.706,0.27-1.278,0.632c-1.083,0.687-2.322,1.047-3.531,1.429
			c-3.189,1.007-6.539,1.211-9.857,1.272c-3.35,0.062-6.627-0.421-9.857-1.272c-1.251-0.33-2.394-0.828-3.532-1.429
			c-0.613-0.324-1.377-1.537-1.278-0.632c0.08,0.728,0.496-0.136,1.278-0.632c1.083-0.686,2.322-1.047,3.532-1.429
			c3.189-1.008,6.539-1.211,9.857-1.272c3.35-0.062,6.627,0.421,9.857,1.272c1.25,0.329,2.394,0.827,3.531,1.429
			C737.365,240.521,738.129,241.733,738.03,240.828c0.626,5.704,9.633,5.765,9,0c-1.162-10.578-15.288-12.179-23.667-12.333
			c-8.354-0.153-22.528,1.962-23.667,12.333c-1.144,10.414,17.203,12.214,23.667,12.333c8.355,0.153,22.527-1.961,23.667-12.333
			C747.663,235.063,738.656,235.124,738.03,240.828z"/>
	</g>
</g>
<g>
	<line fill="#FFFFFF" x1="742.386" y1="241.828" x2="760.446" y2="187.024"/>
	<g>
		<path fill="#2E3192" d="M746.726,243.024c6.02-18.268,12.04-36.536,18.06-54.804c1.822-5.528-6.871-7.878-8.679-2.393
			c-6.02,18.268-12.04,36.536-18.06,54.804C736.225,246.16,744.918,248.51,746.726,243.024L746.726,243.024z"/>
	</g>
</g>
<rect x="610.988" y="204.535" fill="none" width="238.125" height="33.752"/>
<text transform="matrix(1 0 0 1 645.4644 235.459)" fill="#1A1A1A" stroke="#F2F2F2" stroke-width="2" stroke-miterlimit="10" font-family="'CenturyGothic-Bold'" font-size="36">MUSICON</text>
<path stroke="#000000" stroke-miterlimit="10" d="M455.863,9.497h-96.842l0,0H11.863v156.404c0,0,30.982,14.297,30.982,50.045
	c0,35.744-30.982,42.892-30.982,42.892v164.659h378.688l0,0h65.312V9.497z"/>
<g>
	<g>
		<path fill="#E6E6E6" d="M789.363,321.997v22.25c0,0-4.333,1.75-4.333,6.75h-48.667v-29H789.363z"/>
	</g>
	<g>
		<path fill="#E6E6E6" d="M789.363,379.997v-22.75c0,0-4.333-1.25-4.333-6.25h-48.667v29H789.363z"/>
	</g>
	<rect x="727.363" y="321.997" fill="#E6E6E6" width="14" height="58"/>
</g>
</svg>
